<svg width="156" height="31" viewBox="0 0 156 31" fill="none" xmlns="http://www.w3.org/2000/svg">
<circle cx="3" cy="3" r="3" transform="matrix(-1 0 0 1 156 20)" fill="black"/>
<path fill-rule="evenodd" clip-rule="evenodd" d="M16 3.49998C21.3997 3.60451 29.5 6.49998 29.5 6.49998C30.1667 6.99998 31 7.86142 31 8.99998C31 9.59953 30.8022 10.0326 30.5 10.4284L30.5 14V25.7911C30.5 26.0713 30.6546 26.194 30.8799 26.3728C31.0566 26.513 31.2768 26.6878 31.5 27C31.8652 27.5109 32.0563 28.4345 31.7378 29.2626C31.4193 30.0907 30.1855 30.7277 29.1899 30.7277C29.1899 30.7277 27.779 30.315 27.279 29.39C26.9076 28.7029 27.2471 27.5428 27.2471 27.5428C27.3767 27.1972 27.4997 26.9493 27.6152 26.7167C27.7552 26.4346 27.8841 26.175 28 25.7911V12.6324C27.7278 12.796 27.458 12.9466 27.2089 13.0856L27.2089 13.0856C26.5271 13.4661 26 13.7603 26 14V20.5V23C26 23.5 24.7413 25.0647 23 25.5C21.2587 25.9353 20 26 16 26C12 26 8.50001 25.5 7.50002 25C6.50003 24.5 5.09222 23.0577 5.00003 22C4.97822 21.7498 5.01939 20.8189 5.07067 19.6594L5.07067 19.6593C5.18272 17.1255 5.34305 13.5 5.00003 13.5C4.50004 13.5 2.00003 12 2.00003 12C2.00003 12 0.0883062 10.7472 3.1288e-05 9.49998C-0.107643 7.97874 2.50003 6.49998 2.50003 6.49998C2.50003 6.49998 5.00003 4.99998 7.00003 4.49998C8.60003 4.09998 12.4643 3.43154 16 3.49998ZM15.5 5.99999C16 5.99999 28 8.49998 28 8.99998C28 9.49998 17.5 13 16.5 13C15.5 13 4.50002 9.99997 4.00002 9.49998C3.50002 8.99999 15 5.99999 15.5 5.99999ZM11 14.5C11 14.5 7.50002 13 7.50002 13.5V18.5V21.5C7.50002 22.5515 10 23 10.5 23H16H21C22 23 23.5 22 24 21C24.4052 20.1896 24.1537 16.0952 24.0437 14.3058C24.018 13.8872 24 13.5948 24 13.5C24 13 22 14 22 14C22 14 18.7183 14.8111 16.5 15C14.3511 15.1829 11 14.5 11 14.5Z" fill="black"/>
<path d="M33.6435 25V6.09091H46.1634V9.38707H37.6413V13.8928H45.3324V17.1889H37.6413V25H33.6435ZM66.7489 15.5455C66.7489 17.6075 66.358 19.3617 65.5763 20.8082C64.8007 22.2547 63.742 23.3596 62.4001 24.1229C61.0644 24.88 59.5626 25.2585 57.8945 25.2585C56.2141 25.2585 54.706 24.8769 53.3703 24.1136C52.0346 23.3504 50.979 22.2455 50.2034 20.799C49.4278 19.3525 49.0401 17.6013 49.0401 15.5455C49.0401 13.4834 49.4278 11.7292 50.2034 10.2827C50.979 8.83617 52.0346 7.73437 53.3703 6.97727C54.706 6.21401 56.2141 5.83239 57.8945 5.83239C59.5626 5.83239 61.0644 6.21401 62.4001 6.97727C63.742 7.73437 64.8007 8.83617 65.5763 10.2827C66.358 11.7292 66.7489 13.4834 66.7489 15.5455ZM62.6956 15.5455C62.6956 14.2098 62.4956 13.0833 62.0955 12.1662C61.7015 11.2491 61.1445 10.5535 60.4243 10.0795C59.7041 9.60559 58.8609 9.36861 57.8945 9.36861C56.9281 9.36861 56.0848 9.60559 55.3646 10.0795C54.6445 10.5535 54.0843 11.2491 53.6842 12.1662C53.2903 13.0833 53.0933 14.2098 53.0933 15.5455C53.0933 16.8812 53.2903 18.0076 53.6842 18.9247C54.0843 19.8419 54.6445 20.5374 55.3646 21.0114C56.0848 21.4853 56.9281 21.7223 57.8945 21.7223C58.8609 21.7223 59.7041 21.4853 60.4243 21.0114C61.1445 20.5374 61.7015 19.8419 62.0955 18.9247C62.4956 18.0076 62.6956 16.8812 62.6956 15.5455ZM86.0464 6.09091V25H82.5933L74.3667 13.0987H74.2282V25H70.2303V6.09091H73.7389L81.9008 17.983H82.067V6.09091H86.0464ZM89.8695 25V6.09091H102.611V9.38707H93.8674V13.8928H101.955V17.1889H93.8674V21.7038H102.648V25H89.8695ZM105.589 9.38707V6.09091H121.119V9.38707H115.33V25H111.378V9.38707H105.589ZM128.194 6.09091V25H124.197V6.09091H128.194ZM132.004 25V6.09091H136.002V14.4283H136.251L143.056 6.09091H147.847L140.83 14.5575L147.931 25H143.148L137.968 17.2259L136.002 19.6264V25H132.004Z" fill="black"/>
</svg>
