<svg width="100" height="100" viewBox="0 0 100 100" fill="none" xmlns="http://www.w3.org/2000/svg">
<path d="M16.6667 45.8333H41.6667C42.7717 45.8333 43.8315 45.3943 44.6129 44.6129C45.3943 43.8315 45.8333 42.7717 45.8333 41.6667V16.6667C45.8333 15.5616 45.3943 14.5018 44.6129 13.7204C43.8315 12.939 42.7717 12.5 41.6667 12.5H16.6667C15.5616 12.5 14.5018 12.939 13.7204 13.7204C12.939 14.5018 12.5 15.5616 12.5 16.6667V41.6667C12.5 42.7717 12.939 43.8315 13.7204 44.6129C14.5018 45.3943 15.5616 45.8333 16.6667 45.8333ZM58.3333 45.8333H83.3333C84.4384 45.8333 85.4982 45.3943 86.2796 44.6129C87.061 43.8315 87.5 42.7717 87.5 41.6667V16.6667C87.5 15.5616 87.061 14.5018 86.2796 13.7204C85.4982 12.939 84.4384 12.5 83.3333 12.5H58.3333C57.2283 12.5 56.1685 12.939 55.3871 13.7204C54.6057 14.5018 54.1667 15.5616 54.1667 16.6667V41.6667C54.1667 42.7717 54.6057 43.8315 55.3871 44.6129C56.1685 45.3943 57.2283 45.8333 58.3333 45.8333ZM16.6667 87.5H41.6667C42.7717 87.5 43.8315 87.061 44.6129 86.2796C45.3943 85.4982 45.8333 84.4384 45.8333 83.3333V58.3333C45.8333 57.2283 45.3943 56.1685 44.6129 55.3871C43.8315 54.6057 42.7717 54.1667 41.6667 54.1667H16.6667C15.5616 54.1667 14.5018 54.6057 13.7204 55.3871C12.939 56.1685 12.5 57.2283 12.5 58.3333V83.3333C12.5 84.4384 12.939 85.4982 13.7204 86.2796C14.5018 87.061 15.5616 87.5 16.6667 87.5ZM70.8333 87.5C80.025 87.5 87.5 80.025 87.5 70.8333C87.5 61.6417 80.025 54.1667 70.8333 54.1667C61.6417 54.1667 54.1667 61.6417 54.1667 70.8333C54.1667 80.025 61.6417 87.5 70.8333 87.5Z" fill="#222222"/>
</svg>
