<svg width="100" height="100" viewBox="0 0 100 100" fill="none" xmlns="http://www.w3.org/2000/svg">
<path d="M87.5 8.33337H25C22.7898 8.33337 20.6702 9.21135 19.1074 10.7742C17.5446 12.337 16.6666 14.4566 16.6666 16.6667V29.1667H8.33331V37.5H16.6666V45.8334H8.33331V54.1667H16.6666V62.5H8.33331V70.8334H16.6666V83.3334C16.6666 85.5435 17.5446 87.6631 19.1074 89.2259C20.6702 90.7887 22.7898 91.6667 25 91.6667H87.5C88.605 91.6667 89.6649 91.2277 90.4463 90.4463C91.2277 89.6649 91.6666 88.6051 91.6666 87.5V12.5C91.6666 11.395 91.2277 10.3352 90.4463 9.55376C89.6649 8.77236 88.605 8.33337 87.5 8.33337ZM54.1666 20.8292C61.0333 20.8292 66.6666 26.4584 66.6666 33.3292C66.6546 36.6411 65.3339 39.8139 62.9924 42.1562C60.6509 44.4984 57.4785 45.8202 54.1666 45.8334C47.3041 45.8334 41.6666 40.1959 41.6666 33.3292C41.6666 26.4584 47.3041 20.8292 54.1666 20.8292ZM79.1666 75H29.1666V71.875C29.1666 62.6292 40.4375 53.125 54.1666 53.125C67.8958 53.125 79.1666 62.6292 79.1666 71.875V75Z" fill="#222222"/>
</svg>
