<svg width="30" height="30" viewBox="0 0 30 30" fill="none" xmlns="http://www.w3.org/2000/svg">
<path d="M26.5465 6.61049L15.2965 2.86049C15.104 2.79634 14.896 2.79634 14.7035 2.86049L3.45352 6.61049C3.26684 6.67272 3.10448 6.79211 2.98943 6.95175C2.87439 7.11138 2.81249 7.30317 2.8125 7.49995V16.8749C2.8125 17.1236 2.91127 17.362 3.08709 17.5379C3.2629 17.7137 3.50136 17.8124 3.75 17.8124C3.99864 17.8124 4.2371 17.7137 4.41291 17.5379C4.58873 17.362 4.6875 17.1236 4.6875 16.8749V8.80073L8.62383 10.1121C7.578 11.8017 7.24543 13.8373 7.69914 15.7719C8.15286 17.7065 9.35577 19.382 11.0437 20.4304C8.93437 21.2578 7.11094 22.7542 5.77734 24.8003C5.70799 24.9034 5.65981 25.0193 5.63562 25.1411C5.61142 25.263 5.6117 25.3884 5.63642 25.5102C5.66113 25.632 5.70981 25.7476 5.77961 25.8504C5.84941 25.9532 5.93895 26.041 6.04301 26.1089C6.14707 26.1768 6.26359 26.2233 6.38579 26.2458C6.50799 26.2682 6.63343 26.2661 6.75482 26.2397C6.87622 26.2132 6.99114 26.1629 7.09291 26.0916C7.19468 26.0204 7.28128 25.9296 7.34766 25.8246C9.11367 23.1152 11.9027 21.5624 15 21.5624C18.0973 21.5624 20.8863 23.1152 22.6523 25.8246C22.7898 26.0289 23.0023 26.171 23.2436 26.22C23.485 26.269 23.736 26.221 23.9423 26.0864C24.1486 25.9519 24.2937 25.7415 24.3462 25.5009C24.3986 25.2602 24.3543 25.0086 24.2227 24.8003C22.8891 22.7542 21.0586 21.2578 18.9562 20.4304C20.6426 19.382 21.8444 17.7076 22.298 15.7744C22.7517 13.8412 22.4201 11.807 21.3762 10.1179L26.5465 8.39526C26.7332 8.33307 26.8956 8.21369 27.0107 8.05405C27.1258 7.89441 27.1877 7.70261 27.1877 7.50581C27.1877 7.30901 27.1258 7.1172 27.0107 6.95756C26.8956 6.79792 26.7332 6.67855 26.5465 6.61635V6.61049ZM20.625 14.0624C20.6253 14.9517 20.4147 15.8284 20.0105 16.6205C19.6063 17.4127 19.0201 18.0977 18.2999 18.6194C17.5797 19.1411 16.7461 19.4846 15.8675 19.6217C14.9888 19.7589 14.0902 19.6858 13.2453 19.4084C12.4004 19.1309 11.6333 18.6572 11.0069 18.0259C10.3806 17.3946 9.91285 16.6238 9.64208 15.7767C9.37131 14.9297 9.30524 14.0305 9.44928 13.1529C9.59332 12.2754 9.94336 11.4445 10.4707 10.7285L14.7035 12.1347C14.896 12.1989 15.104 12.1989 15.2965 12.1347L19.5293 10.7285C20.2415 11.6941 20.6256 12.8626 20.625 14.0624ZM15 10.2621L6.71484 7.49995L15 4.73784L23.2852 7.49995L15 10.2621Z" fill="#222222"/>
</svg>
