<svg width="30" height="30" viewBox="0 0 30 30" fill="none" xmlns="http://www.w3.org/2000/svg">
<path d="M25 21.25C25.663 21.25 26.2989 20.9866 26.7678 20.5178C27.2366 20.0489 27.5 19.413 27.5 18.75V5C27.5 4.33696 27.2366 3.70107 26.7678 3.23223C26.2989 2.76339 25.663 2.5 25 2.5H11.825C12.2625 3.2625 12.5 4.125 12.5 5H25V18.75H13.75V21.25M18.75 8.75V11.25H11.25V27.5H8.75V20H6.25V27.5H3.75V17.5H1.875V11.25C1.875 10.587 2.13839 9.95107 2.60723 9.48223C3.07607 9.01339 3.71196 8.75 4.375 8.75H18.75ZM10 5C10 5.66304 9.73661 6.29893 9.26777 6.76777C8.79893 7.23661 8.16304 7.5 7.5 7.5C6.83696 7.5 6.20107 7.23661 5.73223 6.76777C5.26339 6.29893 5 5.66304 5 5C5 4.33696 5.26339 3.70107 5.73223 3.23223C6.20107 2.76339 6.83696 2.5 7.5 2.5C8.16304 2.5 8.79893 2.76339 9.26777 3.23223C9.73661 3.70107 10 4.33696 10 5Z" fill="#222222"/>
</svg>
