<?xml version="1.0" encoding="utf-8"?>
<!-- Generator: Adobe Illustrator 27.5.0, SVG Export Plug-In . SVG Version: 6.00 Build 0)  -->
<svg version="1.1" xmlns="http://www.w3.org/2000/svg" xmlns:xlink="http://www.w3.org/1999/xlink" x="0px" y="0px"
	 viewBox="0 0 750 500" style="enable-background:new 0 0 750 500;" xml:space="preserve">
<g id="BACKGROUND">
	<rect style="fill:#FFFFFF;" width="750" height="500"/>
</g>
<g id="OBJECTS">
	<g>
		<defs>
			<rect id="SVGID_1_" width="750" height="500"/>
		</defs>
		<clipPath id="SVGID_00000067220874587523496570000015624669355014719642_">
			<use xlink:href="#SVGID_1_"  style="overflow:visible;"/>
		</clipPath>
		<path style="clip-path:url(#SVGID_00000067220874587523496570000015624669355014719642_);fill:#FFE4DD;" d="M431,0
			c19,43,97.139,63.888,180,42c106-28,123,44,130,109c6.806,63.196-49,134,9,172V0L431,0z"/>
		<path style="clip-path:url(#SVGID_00000067220874587523496570000015624669355014719642_);fill:#FFB8A4;" d="M72.597,456.261
			c-36.118,1.941-51.752-43.982-23.91-62.659s96.476,0.176,103.058,21.942C158.326,437.311,99.84,454.797,72.597,456.261z"/>
		<g style="clip-path:url(#SVGID_00000067220874587523496570000015624669355014719642_);">
			<g>
				<path style="fill:#FFE4DD;" d="M93.748,437.667c-10.92-8.749-19.978-19.957-25.371-32.931
					c-4.954-11.917-7.797-28.733-0.916-40.561c5.203-8.943,16.786-13.53,26.362-15.861c10.309-2.509,21.772-0.315,31.713,2.845
					c24.999,7.946,43.879,27.61,57.519,49.317c7.995,12.723,18.207,28.477,10.618,43.692c-5.398,10.822-17.615,17.473-29.507,16.898
					c-11.695-0.566-23.474-3.336-34.653-6.683c-12.628-3.781-25.388-8.73-35.916-16.832c-0.765-0.588-1.512,0.714-0.757,1.295
					c10.261,7.896,22.693,12.821,34.982,16.591c11.22,3.442,22.936,6.169,34.67,7.024c11.008,0.802,21.509-3.349,28.721-11.934
					c9.908-11.794,7.031-26.045,0.267-38.563c-13.248-24.517-31.625-48.142-57.898-59.397c-20.149-8.632-46.115-10.548-63.266,5.711
					c-10.286,9.751-9.494,27.432-5.835,39.966c4.689,16.062,15.255,30.108,28.207,40.486
					C93.434,439.325,94.502,438.27,93.748,437.667z"/>
			</g>
		</g>
		<path style="clip-path:url(#SVGID_00000067220874587523496570000015624669355014719642_);fill:#18A795;" d="M301.5,500
			c21-12,79-29,147,0H301.5z"/>
		<path style="clip-path:url(#SVGID_00000067220874587523496570000015624669355014719642_);fill:#FC981F;" d="M-14,378
			C6.255,389.448,3,493,99,474c91.125-18.035,151.037,13.531,146,32c-9,33-261,8-261,8L-14,378z"/>
		<path style="clip-path:url(#SVGID_00000067220874587523496570000015624669355014719642_);fill:#FFE4DD;" d="M0.846,338.644
			c27.933-45.709,50.979-89.744,40.63-116.811C30.472,193.053,0,180.356,0,180.356L0.846,338.644z"/>
		<g style="clip-path:url(#SVGID_00000067220874587523496570000015624669355014719642_);">
			<g>
				<g>
					<path style="fill:#FC981F;" d="M36.254,336.033c0.359-1.388,1.343-2.529,2.701-3.022c0.901-0.326,0.512-1.776-0.399-1.446
						c-1.852,0.671-3.253,2.151-3.749,4.07C34.566,336.57,36.012,336.969,36.254,336.033L36.254,336.033z"/>
				</g>
			</g>
			<g>
				<g>
					<path style="fill:#FC981F;" d="M56.253,340.781c1.521-1.504,3.042-3.008,4.563-4.512c0.687-0.68-0.373-1.74-1.061-1.061
						c-1.521,1.504-3.042,3.008-4.563,4.512C54.505,340.4,55.566,341.461,56.253,340.781L56.253,340.781z"/>
				</g>
			</g>
			<g>
				<g>
					<path style="fill:#FC981F;" d="M59.735,297.75c1.472-1.185,2.943-2.37,4.415-3.556c0.752-0.605-0.315-1.661-1.061-1.061
						c-1.472,1.185-2.943,2.37-4.415,3.556C57.922,297.295,58.989,298.35,59.735,297.75L59.735,297.75z"/>
				</g>
			</g>
			<g>
				<g>
					<path style="fill:#FC981F;" d="M59.735,318.75c1.472-1.185,2.943-2.37,4.415-3.556c0.752-0.605-0.315-1.661-1.061-1.061
						c-1.472,1.185-2.943,2.37-4.415,3.556C57.922,318.295,58.989,319.35,59.735,318.75L59.735,318.75z"/>
				</g>
			</g>
		</g>
		<path style="clip-path:url(#SVGID_00000067220874587523496570000015624669355014719642_);fill:#18A795;" d="M1,144
			c71.218,0,12.677-127,101-127c22,0,84,31,79.966-16.695C180.918-12.089,0,0,0,0S-37,144,1,144z"/>
		<path style="clip-path:url(#SVGID_00000067220874587523496570000015624669355014719642_);fill:#FFE4DD;" d="M534,500
			c63-28,101.32-65.336,168-52c17.348,3.47,48,20,48,52H534z"/>
		<path style="clip-path:url(#SVGID_00000067220874587523496570000015624669355014719642_);fill:#FC981F;" d="M659,57
			c-28-2-27,26-1,39c16.805,8.402,49,30,55,14S690.066,59.219,659,57z"/>
		<g style="clip-path:url(#SVGID_00000067220874587523496570000015624669355014719642_);">
			<g>
				<path style="fill:#FC981F;" d="M756.475,319.861c-9.13,6.461-21.3,6.129-30.825,0.583c-9.739-5.671-15.535-16.295-17.881-27.032
					c-5.056-23.142,4.548-48.546,12.399-70.069c4.089-11.21,8.724-22.22,13.883-32.98c2.464-5.138,5.046-10.22,7.745-15.239
					c2.621-4.874,5.191-11.527,8.907-15.635c1.383-1.529,2.147-7.036,6.667-1.665c0.719,0.854,0.855,2.292,1.135,3.383
					c0.788,3.07,1.108,6.408,1.599,9.538c1.088,6.94,2.014,13.906,2.779,20.889c1.334,12.177,2.18,24.408,2.54,36.652
					c0.831,28.305-0.99,56.635-5.321,84.616c-0.146,0.944,1.299,1.351,1.446,0.399c4.5-29.072,6.328-58.509,5.279-87.914
					c-0.54-15.142-1.828-30.255-3.854-45.271c-0.862-6.394-1.526-13.025-3.022-19.307c-0.625-2.624-1.916-6.654-5.199-6.831
					c-3.701-0.2-5.75,5.408-7.187,7.847c-3.655,6.202-7.127,12.51-10.412,18.915c-6.052,11.8-11.468,23.927-16.224,36.306
					c-4.998,13.008-9.459,26.345-12.726,39.901c-2.953,12.255-4.618,25.183-1.718,37.612c2.633,11.287,9.128,22.41,19.693,27.889
					c9.82,5.092,21.878,5.202,31.053-1.291C758.014,320.603,757.265,319.302,756.475,319.861L756.475,319.861z"/>
			</g>
		</g>
		<g style="clip-path:url(#SVGID_00000067220874587523496570000015624669355014719642_);">
			<g>
				<path style="fill:#FC5B23;" d="M786.512,34.295c-13.654,6.723-28.279,10.868-43.177,13.776
					c-14.172,2.766-31.785,7.028-45.264-0.315c-5.907-3.218-11.032-8.902-12.382-15.635c-1.72-8.579,4.232-15.831,8.611-22.576
					c8.654-13.329,17.309-26.658,25.963-39.987c0.527-0.812-0.771-1.565-1.295-0.757C708.61-15.247,697.556,0.445,687.849,16.8
					c-6.658,11.216-3.845,23.195,6.948,30.692c12.591,8.745,29.497,5.518,43.536,3.029c16.877-2.993,33.505-7.332,48.936-14.93
					C788.135,35.164,787.376,33.87,786.512,34.295L786.512,34.295z"/>
			</g>
		</g>
		<path style="clip-path:url(#SVGID_00000067220874587523496570000015624669355014719642_);fill:#011D44;" d="M629,51
			c-5.328,3.552,0,13,8,7C642.122,54.158,635,47,629,51z"/>
		<path style="clip-path:url(#SVGID_00000067220874587523496570000015624669355014719642_);fill:#011D44;" d="M15.354,374.248
			c-3.616,2.411,0,8.824,5.43,4.751C24.261,376.392,19.426,371.533,15.354,374.248z"/>
		<path style="clip-path:url(#SVGID_00000067220874587523496570000015624669355014719642_);fill:#FC5B23;" d="M269,445
			c-17.63-5.118-33,42-0.528,34.495C293.446,473.723,300,454,269,445z"/>
		<path style="clip-path:url(#SVGID_00000067220874587523496570000015624669355014719642_);fill:#FC5B23;" d="M544-17
			c-17.939,3.9,16,43,40,34S567-22,544-17z"/>
		<path style="clip-path:url(#SVGID_00000067220874587523496570000015624669355014719642_);fill:#FC981F;" d="M236-9
			c-3.293,26.358,113,41,148,1C405.27-32.308,236-9,236-9z"/>
		<g style="clip-path:url(#SVGID_00000067220874587523496570000015624669355014719642_);">
			<g>
				<g>
					<path style="fill:#FC981F;" d="M319.923,40.008c1.127,0.4,2.253,0.8,3.38,1.201c0.911,0.324,1.303-1.125,0.399-1.446
						c-1.127-0.4-2.253-0.8-3.38-1.201C319.41,38.238,319.018,39.687,319.923,40.008L319.923,40.008z"/>
				</g>
			</g>
			<g>
				<g>
					<path style="fill:#FC981F;" d="M405.938,23.495c1.512,0.38,3.024,0.76,4.536,1.14c0.936,0.235,1.336-1.211,0.399-1.446
						c-1.512-0.38-3.024-0.76-4.536-1.14C405.401,21.813,405.001,23.259,405.938,23.495L405.938,23.495z"/>
				</g>
			</g>
			<g>
				<g>
					<path style="fill:#FC981F;" d="M470.856,60.648c1.887,0.397,3.773,0.794,5.66,1.191c0.942,0.198,1.344-1.247,0.399-1.446
						c-1.887-0.397-3.773-0.794-5.66-1.191C470.313,59.003,469.91,60.449,470.856,60.648L470.856,60.648z"/>
				</g>
			</g>
		</g>
		<path style="clip-path:url(#SVGID_00000067220874587523496570000015624669355014719642_);fill:#18A795;" d="M773,413
			c13.498-29.014-50.263-52.545-64.701-36.021C693.861,393.504,720.723,409.493,731,414C754.477,424.296,768.48,422.715,773,413z"/>
		<g style="clip-path:url(#SVGID_00000067220874587523496570000015624669355014719642_);">
			<g>
				<g>
					<path style="fill:#011D44;" d="M229.356,35.512c-1.749-1.661-3.518-3.3-5.278-4.95c-0.704-0.66-1.767,0.399-1.061,1.061
						c1.76,1.649,3.528,3.288,5.278,4.95C228.995,37.237,230.057,36.179,229.356,35.512L229.356,35.512z"/>
				</g>
			</g>
			<g>
				<g>
					<path style="fill:#011D44;" d="M214.964-0.742c-1.309-1.248-2.619-2.496-3.928-3.744c-0.699-0.666-1.761,0.393-1.061,1.061
						c1.309,1.248,2.619,2.496,3.928,3.744C214.602,0.984,215.664-0.075,214.964-0.742L214.964-0.742z"/>
				</g>
			</g>
			<g>
				<g>
					<path style="fill:#011D44;" d="M217.088,15.837c-1.299-1.259-2.598-2.518-3.897-3.776c-0.694-0.672-1.755,0.387-1.061,1.061
						c1.299,1.259,2.598,2.518,3.897,3.776C216.721,17.569,217.783,16.51,217.088,15.837L217.088,15.837z"/>
				</g>
			</g>
			<g>
				<g>
					<path style="fill:#011D44;" d="M243.008,39.55c-1.309-1.248-2.619-2.496-3.928-3.744c-0.699-0.666-1.761,0.393-1.061,1.061
						c1.309,1.248,2.619,2.496,3.928,3.744C242.646,41.277,243.709,40.218,243.008,39.55L243.008,39.55z"/>
				</g>
			</g>
			<g>
				<g>
					<path style="fill:#011D44;" d="M245.133,56.129c-1.299-1.259-2.598-2.518-3.897-3.776c-0.694-0.672-1.755,0.387-1.061,1.061
						c1.299,1.259,2.598,2.518,3.897,3.776C244.765,57.862,245.827,56.803,245.133,56.129L245.133,56.129z"/>
				</g>
			</g>
		</g>
		<g style="clip-path:url(#SVGID_00000067220874587523496570000015624669355014719642_);">
			<g>
				<g>
					<path style="fill:#011D44;" d="M490.169,505.352c2.594-2.522,5.187-5.044,7.78-7.566c0.693-0.674-0.368-1.734-1.061-1.061
						c-2.593,2.522-5.187,5.044-7.78,7.566C488.415,504.965,489.476,506.026,490.169,505.352L490.169,505.352z"/>
				</g>
			</g>
			<g>
				<g>
					<path style="fill:#011D44;" d="M499.144,486.195c1.689-1.721,3.378-3.443,5.068-5.164c0.677-0.69-0.383-1.751-1.061-1.061
						c-1.689,1.721-3.378,3.443-5.068,5.164C497.407,485.824,498.467,486.885,499.144,486.195L499.144,486.195z"/>
				</g>
			</g>
			<g>
				<g>
					<path style="fill:#011D44;" d="M514.144,498.195c1.689-1.721,3.378-3.443,5.068-5.164c0.677-0.69-0.383-1.751-1.061-1.061
						c-1.689,1.721-3.378,3.443-5.068,5.164C512.407,497.824,513.467,498.885,514.144,498.195L514.144,498.195z"/>
				</g>
			</g>
			<g>
				<g>
					<path style="fill:#011D44;" d="M521.028,476.098c1.279-1.279,2.558-2.558,3.837-3.837c0.683-0.683-0.377-1.744-1.061-1.061
						c-1.279,1.279-2.558,2.558-3.837,3.837C519.284,475.721,520.344,476.781,521.028,476.098L521.028,476.098z"/>
				</g>
			</g>
		</g>
		<path style="opacity:0.38;clip-path:url(#SVGID_00000067220874587523496570000015624669355014719642_);fill:#FFE4DD;" d="M504,101
			c-38.387,4.405-51,77,40,63S565,94,504,101z"/>
		<path style="opacity:0.5;clip-path:url(#SVGID_00000067220874587523496570000015624669355014719642_);fill:#FFE4DD;" d="
			M314.308,443.838c-10.416,1.195-12.035,27.109,10.854,17.095C329.504,459.033,330.86,441.938,314.308,443.838z"/>
		<path style="opacity:0.2;clip-path:url(#SVGID_00000067220874587523496570000015624669355014719642_);fill:#FC981F;" d="
			M56.688,152.755c-18.084,2.075-20.894,47.065,18.844,29.679C83.069,179.136,85.425,149.457,56.688,152.755z"/>
		<g style="clip-path:url(#SVGID_00000067220874587523496570000015624669355014719642_);">
			<g>
				<g>
					<path style="fill:#FC5B23;" d="M690.498,160.867c-1.184,1.952-2.369,3.904-3.553,5.857c-0.502,0.827,0.795,1.582,1.295,0.757
						c1.184-1.952,2.369-3.904,3.553-5.857C692.295,160.797,690.998,160.042,690.498,160.867L690.498,160.867z"/>
				</g>
			</g>
			<g>
				<g>
					<path style="fill:#FC5B23;" d="M690.444,176.765c-1.329,1.636-2.659,3.272-3.988,4.907c-0.604,0.743,0.451,1.81,1.061,1.061
						c1.329-1.636,2.659-3.272,3.988-4.907C692.108,177.083,691.053,176.015,690.444,176.765L690.444,176.765z"/>
				</g>
			</g>
			<g>
				<g>
					<path style="fill:#FC5B23;" d="M686.597,192.182c-1.38,1.595-2.76,3.189-4.14,4.784c-0.629,0.727,0.428,1.792,1.061,1.061
						c1.38-1.595,2.76-3.189,4.14-4.784C688.287,192.516,687.231,191.45,686.597,192.182L686.597,192.182z"/>
				</g>
			</g>
		</g>
		<g style="clip-path:url(#SVGID_00000067220874587523496570000015624669355014719642_);">
			<g>
				<path style="fill:#FFE4DD;" d="M606.328,411.629c14.972,16.055,44.882,6.956,56.475-8.77
					c12.528-16.992,4.166-41.808-15.425-48.892c-0.909-0.329-1.301,1.12-0.399,1.446c18.988,6.866,26.569,31.058,14.152,47.153
					c-11.247,14.578-39.583,23.185-53.743,8.001C606.729,409.861,605.67,410.923,606.328,411.629L606.328,411.629z"/>
			</g>
		</g>
		<g style="clip-path:url(#SVGID_00000067220874587523496570000015624669355014719642_);">
			<g>
				<path style="fill:#FFE4DD;" d="M150.731,59.042c-14.973-16.055-44.882-6.955-56.475,8.77
					c-12.528,16.992-4.166,41.808,15.425,48.892c0.909,0.329,1.301-1.12,0.399-1.446c-18.988-6.866-26.569-31.058-14.152-47.153
					c11.247-14.578,39.583-23.185,53.743-8.001C150.33,60.81,151.389,59.748,150.731,59.042L150.731,59.042z"/>
			</g>
		</g>
		<g style="clip-path:url(#SVGID_00000067220874587523496570000015624669355014719642_);">
			<g>
				<path style="fill:#FFE4DD;" d="M19.243,168.692c-1.901-2.365-0.247-6.386,1.503-8.35c2.088-2.344,4.52-1.893,5.969,0.761
					c1.059,1.94,1.895,5.248,0.504,7.229C25.866,170.258,20.878,170.181,19.243,168.692c-0.712-0.649-1.776,0.409-1.061,1.061
					c2.228,2.029,7.936,2.202,9.988-0.194c2.27-2.651,1.15-7.413-0.643-9.997c-5.094-7.341-13.759,4.699-9.345,10.191
					C18.787,170.505,19.842,169.438,19.243,168.692z"/>
			</g>
		</g>
		<g style="clip-path:url(#SVGID_00000067220874587523496570000015624669355014719642_);">
			<path style="fill:#FFFFFF;" d="M576.712,73.223c-2.757-3.02,0.521-10.664,4.563-11.282c4.201-0.643,7.131,8.391,4.106,11.375
				C583.838,74.838,578.14,74.787,576.712,73.223z"/>
		</g>
		<g style="clip-path:url(#SVGID_00000067220874587523496570000015624669355014719642_);">
			<g>
				<path style="fill:#FFE4DD;" d="M-5.038-13.663C-21.165-1.837-15.174,22.479,2.101,29.545
					C21.84,37.619,42.306,24.148,49.739,5.67c3.197-7.947,3.737-19.213-5.69-22.973c-8.618-3.438-19.294,0.586-25.239,7.184
					c-6.102,6.772-7.357,16.537-1.535,23.9c4.642,5.87,12.909,9.303,20,5.863c5.515-2.675,9.634-8.595,12.868-13.607
					c3.607-5.591,6.369-11.831,7.237-18.471c1.412-10.812-2.796-22.155-12.358-27.894c-0.83-0.498-1.585,0.798-0.757,1.295
					C62.338-28.185,56.615-4.655,46.013,9.274c-5.588,7.341-13.121,13.486-22.401,8.068c-8.307-4.85-11.069-14.984-6.086-23.249
					c4.563-7.57,14.411-12.444,23.213-10.776c11.541,2.186,10.839,14.668,7.047,23.125C40.873,21.858,24.776,33.666,7.384,29.647
					c-9.09-2.101-17.149-8.405-19.594-17.654c-2.347-8.877,0.402-18.841,7.929-24.361C-3.51-12.933-4.258-14.235-5.038-13.663
					L-5.038-13.663z"/>
			</g>
		</g>
	</g>
</g>
</svg>
