<svg width="30" height="30" viewBox="0 0 30 30" fill="none" xmlns="http://www.w3.org/2000/svg">
<path d="M7.5 13.75H22.5C22.8315 13.75 23.1495 13.8817 23.3839 14.1161C23.6183 14.3505 23.75 14.6685 23.75 15C23.75 15.3315 23.6183 15.6495 23.3839 15.8839C23.1495 16.1183 22.8315 16.25 22.5 16.25H7.5C7.16848 16.25 6.85054 16.1183 6.61612 15.8839C6.3817 15.6495 6.25 15.3315 6.25 15C6.25 14.6685 6.3817 14.3505 6.61612 14.1161C6.85054 13.8817 7.16848 13.75 7.5 13.75ZM15.0025 5C14.3395 4.99934 13.7033 5.26209 13.234 5.73047C12.7647 6.19884 12.5007 6.83446 12.5 7.4975C12.4993 8.16054 12.7621 8.79669 13.2305 9.266C13.6988 9.73531 14.3345 9.99934 14.9975 10C15.6605 10.0007 16.2967 9.73791 16.766 9.26954C17.2353 8.80116 17.4993 8.16554 17.5 7.5025C17.5007 6.83946 17.2379 6.20331 16.7695 5.734C16.3012 5.26469 15.6655 5.00066 15.0025 5ZM15.0025 20C14.3395 19.9993 13.7033 20.2621 13.234 20.7305C12.7647 21.1988 12.5007 21.8345 12.5 22.4975C12.4993 23.1605 12.7621 23.7967 13.2305 24.266C13.6988 24.7353 14.3345 24.9993 14.9975 25C15.6605 25.0007 16.2967 24.7379 16.766 24.2695C17.2353 23.8012 17.4993 23.1655 17.5 22.5025C17.5007 21.8395 17.2379 21.2033 16.7695 20.734C16.3012 20.2647 15.6655 20.0007 15.0025 20Z" fill="white"/>
</svg>
