<svg width="100" height="100" viewBox="0 0 100 100" fill="none" xmlns="http://www.w3.org/2000/svg">
<path d="M51.0859 19.7812C50.7952 19.503 50.4083 19.3478 50.0059 19.3478C49.6035 19.3478 49.2166 19.503 48.9258 19.7812L12.9688 54.1308C12.816 54.2769 12.6946 54.4524 12.6116 54.6468C12.5287 54.8412 12.4861 55.0503 12.4863 55.2617L12.4805 87.4999C12.4805 89.1576 13.1389 90.7473 14.3111 91.9194C15.4832 93.0915 17.0729 93.7499 18.7305 93.7499H37.5C38.3288 93.7499 39.1237 93.4207 39.7097 92.8347C40.2958 92.2486 40.625 91.4538 40.625 90.6249V64.0624C40.625 63.648 40.7896 63.2506 41.0826 62.9576C41.3757 62.6646 41.7731 62.4999 42.1875 62.4999H57.8125C58.2269 62.4999 58.6243 62.6646 58.9174 62.9576C59.2104 63.2506 59.375 63.648 59.375 64.0624V90.6249C59.375 91.4538 59.7042 92.2486 60.2903 92.8347C60.8763 93.4207 61.6712 93.7499 62.5 93.7499H81.2617C82.9193 93.7499 84.509 93.0915 85.6811 91.9194C86.8532 90.7473 87.5117 89.1576 87.5117 87.4999V55.2617C87.512 55.0503 87.4693 54.8412 87.3864 54.6468C87.3035 54.4524 87.182 54.2769 87.0293 54.1308L51.0859 19.7812Z" fill="#222222"/>
<path d="M95.8809 47.6855L81.2715 33.709V12.5C81.2715 11.6712 80.9423 10.8763 80.3562 10.2903C79.7702 9.70424 78.9753 9.375 78.1465 9.375H68.7715C67.9427 9.375 67.1478 9.70424 66.5618 10.2903C65.9757 10.8763 65.6465 11.6712 65.6465 12.5V18.75L54.334 7.93359C53.2754 6.86328 51.7012 6.25 50 6.25C48.3047 6.25 46.7344 6.86328 45.6758 7.93555L4.13283 47.6816C2.91798 48.8535 2.76564 50.7812 3.87111 52.0508C4.14871 52.3712 4.48861 52.6318 4.87013 52.8167C5.25165 53.0017 5.6668 53.107 6.09033 53.1264C6.51385 53.1457 6.93689 53.0787 7.33369 52.9294C7.73049 52.7801 8.09276 52.5516 8.39845 52.2578L48.9258 13.5312C49.2166 13.2531 49.6035 13.0978 50.0059 13.0978C50.4083 13.0978 50.7952 13.2531 51.086 13.5312L91.6172 52.2578C92.2142 52.8304 93.014 53.1428 93.841 53.1267C94.6681 53.1106 95.455 52.7672 96.0293 52.1719C97.2285 50.9297 97.1289 48.8789 95.8809 47.6855Z" fill="#222222"/>
</svg>
