<svg width="30" height="30" viewBox="0 0 30 30" fill="none" xmlns="http://www.w3.org/2000/svg">
<g clip-path="url(#clip0_360_9)">
<path fill-rule="evenodd" clip-rule="evenodd" d="M6.25 5C5.25544 5 4.30161 5.39509 3.59835 6.09835C2.89509 6.80161 2.5 7.75544 2.5 8.75V10H27.5V8.75C27.5 7.75544 27.1049 6.80161 26.4017 6.09835C25.6984 5.39509 24.7446 5 23.75 5H6.25ZM27.5 12.5H2.5V21.25C2.5 22.2446 2.89509 23.1984 3.59835 23.9017C4.30161 24.6049 5.25544 25 6.25 25H23.75C24.7446 25 25.6984 24.6049 26.4017 23.9017C27.1049 23.1984 27.5 22.2446 27.5 21.25V12.5ZM10 18.75C10 18.4185 10.1317 18.1005 10.3661 17.8661C10.6005 17.6317 10.9185 17.5 11.25 17.5H16.7675L16.6163 17.3487C16.3817 17.1144 16.2499 16.7964 16.2497 16.4648C16.2496 16.1332 16.3812 15.8152 16.6156 15.5806C16.85 15.3461 17.168 15.2142 17.4996 15.2141C17.8311 15.214 18.1492 15.3456 18.3837 15.58L20.6687 17.8663C20.9031 18.1007 21.0347 18.4185 21.0347 18.75C21.0347 19.0815 20.9031 19.3993 20.6687 19.6337L18.3837 21.9187C18.2684 22.0381 18.1305 22.1334 17.978 22.1989C17.8255 22.2644 17.6615 22.2989 17.4955 22.3003C17.3295 22.3018 17.1649 22.2701 17.0113 22.2073C16.8577 22.1444 16.7181 22.0516 16.6008 21.9342C16.4834 21.8169 16.3906 21.6773 16.3277 21.5237C16.2649 21.3701 16.2332 21.2055 16.2347 21.0395C16.2361 20.8735 16.2706 20.7095 16.3361 20.557C16.4016 20.4045 16.4969 20.2666 16.6163 20.1513L16.7675 20H11.25C10.9185 20 10.6005 19.8683 10.3661 19.6339C10.1317 19.3995 10 19.0815 10 18.75Z" fill="white"/>
</g>
<defs>
<clipPath id="clip0_360_9">
<rect width="30" height="30" fill="white"/>
</clipPath>
</defs>
</svg>
