<svg width="30" height="30" viewBox="0 0 30 30" fill="none" xmlns="http://www.w3.org/2000/svg">
<path d="M8.4375 13.125C7.5104 13.125 6.60412 12.8501 5.83327 12.335C5.06241 11.8199 4.4616 11.0879 4.10682 10.2313C3.75203 9.3748 3.6592 8.4323 3.84007 7.52302C4.02094 6.61373 4.46738 5.7785 5.12294 5.12294C5.7785 4.46738 6.61373 4.02094 7.52302 3.84007C8.4323 3.6592 9.3748 3.75203 10.2313 4.10682C11.0879 4.4616 11.8199 5.06241 12.335 5.83327C12.8501 6.60412 13.125 7.5104 13.125 8.4375C13.1235 9.68025 12.6292 10.8717 11.7504 11.7504C10.8717 12.6292 9.68025 13.1235 8.4375 13.125ZM3.75 24.9244L24.9234 3.75L26.25 5.07656L5.07563 26.25L3.75 24.9244ZM21.5625 26.25C20.6354 26.25 19.7291 25.9751 18.9583 25.46C18.1874 24.9449 17.5866 24.2129 17.2318 23.3563C16.877 22.4998 16.7842 21.5573 16.9651 20.648C17.1459 19.7387 17.5924 18.9035 18.2479 18.2479C18.9035 17.5924 19.7387 17.1459 20.648 16.9651C21.5573 16.7842 22.4998 16.877 23.3563 17.2318C24.2129 17.5866 24.9449 18.1874 25.46 18.9583C25.9751 19.7291 26.25 20.6354 26.25 21.5625C26.2485 22.8052 25.7542 23.9967 24.8754 24.8754C23.9967 25.7542 22.8052 26.2485 21.5625 26.25Z" fill="#222222"/>
</svg>
