<svg width="100" height="100" viewBox="0 0 100 100" fill="none" xmlns="http://www.w3.org/2000/svg">
<path d="M64.5834 58.3334H61.2917L60.125 57.2083C62.729 54.1832 64.6321 50.6199 65.6981 46.7734C66.7642 42.9269 66.9669 38.8923 66.2917 34.9584C64.3334 23.375 54.6667 14.125 43 12.7084C38.8984 12.1895 34.7325 12.6157 30.821 13.9546C26.9094 15.2934 23.356 17.5093 20.4326 20.4326C17.5093 23.356 15.2934 26.9094 13.9546 30.821C12.6157 34.7325 12.1895 38.8984 12.7084 43C14.125 54.6667 23.375 64.3334 34.9584 66.2917C38.8923 66.9669 42.9269 66.7642 46.7734 65.6981C50.6199 64.6321 54.1832 62.729 57.2083 60.125L58.3334 61.2917V64.5834L76.0417 82.2917C77.75 84 80.5417 84 82.25 82.2917C83.9584 80.5834 83.9584 77.7917 82.25 76.0834L64.5834 58.3334ZM39.5833 58.3334C29.2083 58.3334 20.8334 49.9583 20.8334 39.5833C20.8334 29.2083 29.2083 20.8334 39.5833 20.8334C49.9583 20.8334 58.3334 29.2083 58.3334 39.5833C58.3334 49.9583 49.9583 58.3334 39.5833 58.3334Z" fill="white"/>
</svg>
